<svg width="16" height="16" viewBox="0 0 16 16" fill="none" xmlns="http://www.w3.org/2000/svg">
<path d="M4 5.33331C4 4.27245 4.42143 3.25503 5.17157 2.50489C5.92172 1.75474 6.93913 1.33331 8 1.33331C9.06087 1.33331 10.0783 1.75474 10.8284 2.50489C11.5786 3.25503 12 4.27245 12 5.33331C12 9.99998 14 11.3333 14 11.3333H2C2 11.3333 4 9.99998 4 5.33331Z" stroke="#1F2937" stroke-linecap="round" stroke-linejoin="round"/>
<path d="M6.8667 14C6.97829 14.203 7.14233 14.3722 7.34169 14.4901C7.54106 14.608 7.76842 14.6702 8.00003 14.6702C8.23165 14.6702 8.45901 14.608 8.65837 14.4901C8.85773 14.3722 9.02178 14.203 9.13337 14" stroke="black" stroke-linecap="round" stroke-linejoin="round"/>
</svg>
