<svg width="14" height="15" viewBox="0 0 14 15" fill="none" xmlns="http://www.w3.org/2000/svg">
<path d="M3.5 1.66663L1.75 3.99996V12.1666C1.75 12.476 1.87292 12.7728 2.09171 12.9916C2.3105 13.2104 2.60725 13.3333 2.91667 13.3333H11.0833C11.3928 13.3333 11.6895 13.2104 11.9083 12.9916C12.1271 12.7728 12.25 12.476 12.25 12.1666V3.99996L10.5 1.66663H3.5Z" stroke="white" stroke-linecap="round" stroke-linejoin="round"/>
<path d="M1.75 4H12.25" stroke="white" stroke-linecap="round" stroke-linejoin="round"/>
<path d="M9.33341 6.33337C9.33341 6.95221 9.08758 7.54571 8.65 7.98329C8.21241 8.42087 7.61892 8.66671 7.00008 8.66671C6.38124 8.66671 5.78775 8.42087 5.35017 7.98329C4.91258 7.54571 4.66675 6.95221 4.66675 6.33337" stroke="white" stroke-linecap="round" stroke-linejoin="round"/>
</svg>
